<?xml version="1.0" encoding="UTF-8" standalone="no"?>
<svg
   xmlns:dc="http://purl.org/dc/elements/1.1/"
   xmlns:cc="http://creativecommons.org/ns#"
   xmlns:rdf="http://www.w3.org/1999/02/22-rdf-syntax-ns#"
   xmlns:svg="http://www.w3.org/2000/svg"
   xmlns="http://www.w3.org/2000/svg"
   xmlns:sodipodi="http://sodipodi.sourceforge.net/DTD/sodipodi-0.dtd"
   xmlns:inkscape="http://www.inkscape.org/namespaces/inkscape"
   version="1.0"
   width="1106.7405pt"
   height="73.625pt"
   viewBox="0 0 1106.7405 73.625"
   preserveAspectRatio="xMidYMid meet"
   id="svg917"
   sodipodi:docname="Logo With Flowers.svg"
   inkscape:version="0.92.3 (2405546, 2018-03-11)">
  <defs
     id="defs921" />
  <sodipodi:namedview
     pagecolor="#ffffff"
     bordercolor="#666666"
     borderopacity="1"
     objecttolerance="10"
     gridtolerance="10"
     guidetolerance="10"
     inkscape:pageopacity="0"
     inkscape:pageshadow="2"
     inkscape:window-width="1920"
     inkscape:window-height="1051"
     id="namedview919"
     showgrid="false"
     fit-margin-top="0"
     fit-margin-left="0"
     fit-margin-right="0"
     fit-margin-bottom="0"
     inkscape:zoom="0.79453125"
     inkscape:cx="1004.7225"
     inkscape:cy="16.306971"
     inkscape:window-x="-9"
     inkscape:window-y="-9"
     inkscape:window-maximized="1"
     inkscape:current-layer="g915" />
  <metadata
     id="metadata879">
Created by potrace 1.15, written by Peter Selinger 2001-2017
<rdf:RDF>
  <cc:Work
     rdf:about="">
    <dc:format>image/svg+xml</dc:format>
    <dc:type
       rdf:resource="http://purl.org/dc/dcmitype/StillImage" />
    <dc:title></dc:title>
  </cc:Work>
</rdf:RDF>
</metadata>
  <g
     transform="matrix(0.1,0,0,-0.1,-86.199621,401.825)"
     id="g915"
     style="fill:#000000;stroke:none">
    <path
       d="m 6125,4006 c -44,-20 -68,-51 -69,-92 -1,-43 21,-59 26,-18 5,41 28,50 88,35 31,-8 69,-10 96,-6 l 45,6 -31,-43 c -21,-30 -35,-66 -43,-111 -11,-67 -11,-67 -43,-67 -21,0 -43,-9 -61,-25 l -28,-25 43,6 c 36,6 47,3 67,-16 14,-13 25,-34 25,-46 0,-21 -4,-23 -29,-18 -29,6 -71,-9 -71,-26 0,-6 13,-10 29,-10 58,0 84,-57 55,-121 -14,-31 -67,-86 -123,-126 -2,-2 -2,-6 2,-9 3,-3 35,6 70,20 35,14 97,31 136,38 63,11 81,10 139,-5 37,-10 83,-28 103,-41 l 35,-24 57,55 c 31,30 54,59 51,65 -4,5 -16,1 -29,-12 l -22,-21 -59,32 c -57,30 -63,31 -156,27 l -97,-5 48,43 c 25,23 60,66 76,96 l 30,53 -2,156 c -3,156 -3,157 23,182 14,14 39,29 55,32 37,8 28,25 -14,25 -48,0 -118,-40 -141,-79 -21,-36 -22,-60 -16,-246 3,-84 0,-107 -17,-146 -20,-45 -87,-129 -103,-129 -5,0 5,24 20,53 43,79 54,155 41,278 -13,129 -5,169 45,220 41,42 40,59 -1,41 -35,-16 -89,-15 -155,3 -65,18 -58,17 -95,1 z"
       id="path881"
       style="fill:#164869;fill-opacity:1"
       inkscape:connector-curvature="0" />
    <path
       d="m 8566,3981 c -5,-7 -37,-155 -72,-329 -64,-320 -72,-342 -113,-342 -8,0 -11,-3 -7,-7 10,-10 136,-11 136,-1 0,4 -8,8 -19,8 -37,0 -42,22 -26,99 8,40 15,73 15,74 0,5 110,-2 118,-7 5,-3 15,-34 21,-68 7,-35 14,-71 17,-80 4,-13 0,-18 -15,-18 -12,0 -21,-3 -21,-8 0,-11 158,-13 165,-1 4,5 -3,9 -14,9 -13,0 -23,8 -26,23 -3,12 -34,157 -70,322 -71,323 -77,346 -89,326 z m 3,-341 c 12,-58 24,-113 27,-122 5,-16 -2,-18 -54,-18 h -59 l 26,130 c 14,71 28,126 32,122 4,-4 16,-54 28,-112 z"
       id="path883"
       inkscape:connector-curvature="0" />
    <path
       d="m 2707,3962 c -41,-25 -70,-93 -65,-150 6,-65 28,-105 99,-187 87,-100 119,-159 119,-220 0,-68 -20,-95 -69,-95 -58,0 -113,69 -127,159 -12,75 -24,43 -24,-64 0,-58 3,-105 6,-105 4,0 13,8 20,18 12,16 15,16 53,-5 68,-39 136,-27 190,31 19,20 26,40 29,85 5,75 -23,141 -100,232 -89,105 -106,132 -116,177 -14,61 0,106 38,122 53,22 100,-24 122,-118 7,-29 16,-52 20,-52 5,0 8,44 8,98 -1,87 -2,95 -15,78 -14,-19 -16,-19 -50,-3 -45,22 -102,21 -138,-1 z"
       id="path885"
       inkscape:connector-curvature="0" />
    <path
       d="m 3380,3941 c -47,-49 -61,-102 -68,-257 -8,-194 27,-333 93,-374 38,-24 82,-26 112,-5 14,10 24,12 28,5 17,-27 25,-2 25,81 0,57 -4,88 -10,84 -5,-3 -10,-14 -10,-24 0,-9 -7,-41 -15,-69 -19,-61 -52,-90 -84,-72 -44,23 -44,17 -41,577 0,43 39,88 67,79 20,-7 53,-69 67,-130 11,-44 19,-23 18,46 0,107 0,106 -17,84 -14,-18 -16,-18 -33,-3 -11,10 -35,17 -57,17 -31,0 -45,-7 -75,-39 z"
       id="path887"
       inkscape:connector-curvature="0" />
    <path
       d="m 3915,3970 c -4,-6 5,-10 19,-10 h 26 v -325 -325 h -26 c -14,0 -23,-4 -20,-8 6,-10 163,-8 173,1 3,4 -3,7 -15,7 -22,0 -22,2 -22,174 v 174 l 60,4 60,3 v -177 c 0,-178 0,-178 -22,-178 -18,-1 -20,-2 -8,-9 18,-10 155,-9 166,2 4,4 -5,7 -19,7 h -27 v 325 c 0,318 0,325 20,325 11,0 20,5 20,10 0,6 -35,10 -85,10 -50,0 -85,-4 -85,-10 0,-5 9,-10 20,-10 19,0 20,-7 20,-140 v -140 h -60 -60 v 140 c 0,133 1,140 20,140 11,0 20,5 20,10 0,6 -35,10 -84,10 -47,0 -88,-4 -91,-10 z"
       id="path889"
       inkscape:connector-curvature="0" />
    <path
       d="m 4755,3949 c -48,-43 -66,-106 -72,-260 -11,-257 46,-399 159,-399 46,0 94,39 119,95 37,85 49,280 25,416 -24,131 -63,179 -147,179 -40,0 -55,-5 -84,-31 z m 116,2 24,-19 3,-281 c 2,-239 1,-285 -13,-311 -12,-23 -22,-30 -45,-30 -62,0 -64,25 -60,578 0,21 9,41 25,57 29,30 36,31 66,6 z"
       id="path891"
       inkscape:connector-curvature="0" />
    <path
       d="m 5455,3949 c -47,-42 -65,-106 -72,-260 -6,-143 6,-237 42,-316 53,-116 182,-110 236,12 37,85 49,280 25,416 -24,131 -63,179 -147,179 -40,0 -55,-5 -84,-31 z m 116,2 24,-19 3,-284 c 2,-315 0,-331 -55,-336 -66,-7 -67,3 -63,581 0,27 38,77 58,77 6,0 20,-9 33,-19 z"
       id="path893"
       inkscape:connector-curvature="0" />
    <path
       d="m 7015,3970 c -4,-6 5,-10 19,-10 h 26 v -325 -325 h -26 c -14,0 -23,-4 -20,-9 8,-12 238,-6 263,7 36,20 63,90 63,163 -1,77 -22,124 -68,155 -30,21 -31,23 -12,29 11,3 31,26 45,50 33,55 36,146 8,203 -28,57 -68,72 -190,72 -57,0 -105,-4 -108,-10 z m 215,-29 c 5,-11 10,-74 10,-140 0,-133 -7,-151 -61,-151 h -29 v 155 155 h 35 c 24,0 37,-6 45,-19 z m -1,-325 c 6,-7 11,-72 13,-145 2,-121 1,-134 -17,-147 -10,-8 -31,-14 -47,-14 h -28 v 159 c 0,116 3,160 12,163 19,7 56,-3 67,-16 z"
       id="path895"
       inkscape:connector-curvature="0" />
    <path
       d="m 7805,3949 c -48,-43 -66,-106 -72,-260 -6,-144 6,-238 42,-316 53,-116 182,-110 236,12 37,85 49,280 25,416 -24,131 -63,179 -147,179 -40,0 -55,-5 -84,-31 z m 116,2 24,-19 3,-284 c 2,-315 0,-331 -55,-336 -60,-6 -63,7 -63,326 v 283 l 25,24 c 29,30 36,31 66,6 z"
       id="path897"
       inkscape:connector-curvature="0" />
    <path
       d="m 9105,3970 c -4,-6 5,-10 19,-10 h 26 v -325 -325 h -27 c -14,0 -24,-3 -20,-6 9,-10 140,-13 162,-4 19,8 19,9 -2,9 -23,1 -23,2 -23,170 0,158 1,169 19,174 11,2 30,-1 43,-7 22,-11 23,-18 28,-146 6,-150 18,-189 63,-204 37,-13 81,10 85,44 2,24 2,24 -12,6 -9,-11 -22,-16 -31,-13 -12,5 -15,28 -15,136 0,125 -1,131 -26,160 -14,17 -33,31 -42,31 -10,0 -4,8 16,20 91,56 78,254 -18,287 -43,15 -236,17 -245,3 z m 209,-29 c 15,-16 18,-38 17,-127 -1,-120 -12,-144 -63,-144 h -28 v 145 145 h 28 c 16,0 37,-9 46,-19 z"
       id="path899"
       inkscape:connector-curvature="0" />
    <path
       d="m 9826,3971 c -5,-7 2,-11 18,-11 h 26 v -325 -325 l -27,-1 -28,-1 25,-7 c 14,-5 65,-6 114,-5 116,5 143,20 174,99 44,109 40,395 -8,502 -28,65 -56,77 -181,81 -71,3 -109,0 -113,-7 z m 216,-28 c 17,-15 18,-38 18,-300 v -284 l -25,-24 c -13,-14 -36,-25 -50,-25 h -25 v 325 325 h 32 c 17,0 40,-7 50,-17 z"
       id="path901"
       inkscape:connector-curvature="0" />
    <path
       d="m 1542,3853 c 3,-28 3,-28 -55,-25 -72,3 -101,-10 -93,-43 5,-18 1,-27 -13,-35 -27,-14 -31,-13 -31,9 0,11 -4,22 -8,25 -12,7 -2,-101 13,-146 7,-21 9,-42 4,-50 -24,-37 2,-97 36,-84 20,7 20,46 0,46 -8,0 -15,-6 -15,-12 0,-9 -3,-9 -9,1 -16,24 5,48 48,55 32,5 44,13 56,36 18,34 7,40 -20,10 -42,-46 -108,4 -85,64 12,34 29,34 27,0 -2,-32 21,-49 56,-40 33,8 93,60 113,97 17,34 18,91 2,107 -20,20 -29,14 -26,-15 z"
       id="path903"
       style="fill:#111111;fill-opacity:1"
       inkscape:connector-curvature="0" />
    <path
       d="m 11892,3853 c 3,-28 3,-28 -55,-25 -72,3 -101,-10 -93,-43 5,-18 1,-27 -14,-35 -17,-9 -22,-7 -30,16 -6,15 -12,25 -14,23 -6,-8 13,-148 23,-166 6,-12 6,-25 0,-34 -14,-22 -11,-65 6,-79 20,-16 45,-5 45,20 0,22 -15,27 -26,9 -4,-8 -9,-7 -15,2 -14,22 9,46 50,53 32,5 44,13 56,36 18,34 7,40 -20,10 -40,-45 -110,0 -89,57 13,37 33,41 31,8 -2,-33 21,-50 56,-41 33,8 93,60 113,97 17,34 18,91 2,107 -20,20 -29,14 -26,-15 z"
       id="path905"
       style="fill:#111111;fill-opacity:1"
       inkscape:connector-curvature="0" />
    <path
       d="m 870,3840 c -16,-39 -7,-105 18,-139 22,-30 62,-41 62,-17 0,10 9,16 25,16 21,0 25,-5 25,-29 0,-69 45,-131 95,-131 44,0 68,21 70,61 1,19 8,45 14,58 10,18 10,27 -4,47 -9,14 -27,29 -41,34 -23,9 -34,40 -14,40 6,0 10,5 10,10 0,18 -29,10 -44,-12 -21,-29 -21,-120 -1,-158 18,-34 23,-36 40,-13 18,25 27,0 9,-26 -11,-15 -24,-21 -42,-19 -22,2 -27,8 -28,33 -2,50 -4,55 -15,55 -6,0 -9,-9 -6,-20 6,-24 -8,-27 -17,-4 -18,47 6,136 47,170 43,36 135,28 98,-9 -13,-13 -15,-47 -1,-47 5,0 13,8 19,17 8,15 11,15 26,3 16,-13 45,-62 45,-76 0,-3 -7,-4 -15,0 -20,7 -56,-29 -49,-49 9,-22 21,-19 28,8 6,22 7,22 31,-8 24,-29 25,-29 39,-10 15,19 17,18 20,-5 2,-17 21,-16 24,2 2,9 -8,24 -21,33 -22,14 -24,19 -16,60 11,58 21,77 61,110 27,23 38,26 71,21 35,-6 39,-5 27,9 -7,9 -28,15 -50,15 -47,0 -92,-34 -121,-92 l -20,-39 -29,40 c -46,62 -70,75 -135,66 -46,-5 -55,-4 -55,9 0,9 -4,16 -9,16 -18,0 -23,-22 -11,-46 12,-21 10,-28 -14,-65 -15,-22 -30,-38 -34,-35 -3,4 0,12 6,18 30,30 2,85 -39,75 -34,-9 -50,2 -43,29 9,36 -21,31 -36,-6 z"
       id="path907"
       style="fill:#111111;fill-opacity:1"
       inkscape:connector-curvature="0" />
    <path
       d="m 11220,3840 c -16,-39 -7,-105 18,-139 22,-30 62,-41 62,-17 0,10 9,16 24,16 21,0 24,-6 30,-50 9,-66 45,-110 92,-110 44,0 76,31 72,69 -1,16 4,36 12,46 12,15 12,20 -1,43 -8,15 -27,33 -42,40 -26,13 -38,42 -17,42 6,0 10,5 10,10 0,18 -29,10 -44,-12 -21,-29 -21,-120 -1,-158 18,-35 23,-36 41,-12 12,16 13,16 14,-4 0,-28 -23,-46 -52,-42 -18,2 -23,10 -24,33 -2,50 -4,55 -15,55 -6,0 -9,-9 -6,-20 6,-24 -8,-27 -17,-4 -18,47 6,136 47,170 43,36 135,28 98,-9 -13,-13 -15,-47 -1,-47 5,0 13,8 19,17 8,15 11,15 26,3 16,-13 45,-62 45,-76 0,-3 -7,-4 -15,0 -20,7 -56,-29 -49,-49 9,-22 24,-19 24,5 0,28 15,25 39,-7 19,-28 20,-28 35,-8 14,20 15,20 24,-5 9,-23 11,-23 18,-6 5,14 1,24 -17,39 -39,31 -20,117 38,168 32,27 41,30 76,25 35,-6 39,-5 27,9 -7,9 -28,15 -50,15 -47,0 -92,-34 -121,-92 l -20,-39 -29,40 c -46,62 -70,75 -135,66 -46,-5 -55,-4 -55,9 0,9 -4,16 -9,16 -18,0 -23,-22 -11,-46 12,-21 10,-28 -14,-65 -15,-22 -30,-38 -34,-35 -3,4 0,12 6,18 30,30 2,85 -39,75 -34,-9 -50,2 -43,29 9,36 -21,31 -36,-6 z"
       id="path909"
       style="fill:#111111;fill-opacity:1"
       inkscape:connector-curvature="0" />
    <path
       d="m 1223,3588 c -6,-7 -14,-23 -17,-35 -6,-18 -15,-23 -40,-23 -17,0 -37,-5 -44,-12 -15,-15 -16,-54 -2,-63 6,-4 10,7 10,24 0,26 4,31 24,31 27,0 51,-24 41,-40 -4,-6 -16,-10 -28,-8 -34,5 -45,-54 -20,-107 l 18,-40 3,46 c 3,39 9,52 46,87 44,42 75,97 61,110 -4,4 -10,2 -12,-4 -8,-23 -32,-49 -38,-42 -14,13 5,57 27,64 31,9 68,-35 68,-82 0,-33 -14,-47 -22,-22 -7,20 -37,0 -43,-29 -11,-54 -20,-76 -32,-81 -8,-2 -13,5 -13,18 0,12 -4,18 -10,15 -14,-9 -13,-48 2,-63 19,-19 82,-14 111,8 29,23 42,54 30,72 -4,7 -8,39 -8,70 0,41 -6,64 -21,85 -23,31 -74,43 -91,21 z"
       id="path911"
       style="fill:#111111;fill-opacity:1"
       inkscape:connector-curvature="0" />
    <path
       d="m 11572,3588 c -5,-7 -13,-23 -16,-35 -6,-18 -15,-23 -40,-23 -17,0 -37,-5 -44,-12 -15,-15 -16,-58 -2,-58 6,0 10,11 10,25 0,20 5,25 24,25 27,0 51,-24 41,-40 -4,-6 -16,-10 -28,-8 -34,5 -45,-54 -20,-107 l 18,-40 3,46 c 3,39 9,52 46,87 44,42 75,97 61,110 -4,4 -10,1 -12,-5 -3,-7 -13,-23 -23,-35 l -19,-23 -1,27 c 0,28 23,58 43,58 31,-1 57,-42 57,-89 0,-30 -14,-43 -22,-19 -7,20 -37,0 -43,-29 -11,-54 -20,-76 -32,-81 -8,-2 -13,5 -13,18 0,12 -4,18 -10,15 -14,-9 -13,-48 2,-63 7,-7 29,-12 51,-12 29,0 46,7 68,29 30,30 37,55 19,66 -7,4 -8,23 -5,49 7,44 -14,113 -38,128 -19,12 -63,9 -75,-4 z"
       id="path913"
       style="fill:#111111;fill-opacity:1"
       inkscape:connector-curvature="0" />
  </g>
</svg>
